<?xml version="1.0" encoding="UTF-8"?>
<svg id="Layer_2" data-name="Layer 2" xmlns="http://www.w3.org/2000/svg" viewBox="0 0 290.22 506.41">
  <defs>
    <clipPath id="bottom-red">
      <rect x="0" y="312" width="290.22" height="194.41"/>
    </clipPath>
    <style>
      .cls-1 {
        fill: #fff;
      }

      .cls-1, .cls-2 {
        stroke-width: 0px;
      }

      .cls-2 {
        fill: #ff0006;
      }
    </style>
  </defs>
  <g id="Layer_1-2" data-name="Layer 1">
    <path class="cls-1" d="m143.51,3c33.95,0,67.77,3.83,100.53,11.38l3.16.73-.24,3.24c-.06.83-.09,1.68-.09,2.54,0,20.15,16.4,36.54,36.55,36.54h3.79v393.29l-3.3.43c-48.86,6.3-94.53,23.22-135.74,50.31l-2.08,1.37-2.08-1.37c-41.2-27.08-88.81-44.56-137.68-50.55l-3.33-.41V57.43h3.79c20.15,0,36.54-16.39,36.54-36.54,0-1.09-.05-2.16-.14-3.18l-.31-3.32,3.26-.72C77.9,6.59,110.66,3,143.51,3m0-3c-33.07,0-66.05,3.61-98.03,10.73l-5.83,1.3.55,5.95c.09.93.13,1.9.13,2.9,0,18.5-15.05,33.54-33.54,33.54H0v398.72l5.96.73c48.42,5.94,95.58,23.26,136.4,50.08l3.73,2.45,3.73-2.45c40.83-26.84,86.08-43.61,134.48-49.85l5.92-.76V54.43h-6.79c-18.5,0-33.55-15.05-33.55-33.54,0-.78.03-1.56.08-2.32l.42-5.8-5.67-1.31C211.74,3.85,177.69,0,143.51,0h0Z"/>
    <path class="cls-2" clip-path="url(#bottom-red)" d="m283.43,61.21v386.17c-50.23,6.47-96.91,24.33-137.34,50.91-40.96-26.92-88.32-44.89-139.3-51.15V61.21c22.28,0,40.33-18.06,40.33-40.33,0-1.19-.05-2.37-.16-3.53,31.08-6.92,63.39-10.57,96.55-10.57s67.64,3.9,99.68,11.28c-.07.93-.1,1.86-.1,2.81,0,22.27,18.06,40.33,40.34,40.33Z"/>
  </g>
</svg>
