<?xml version="1.0" encoding="UTF-8"?>
<svg id="Layer_2" data-name="Layer 2" xmlns="http://www.w3.org/2000/svg" viewBox="0 0 31.5 31.5">
  <defs>
    <style>
      .cls-1 {
        stroke-width: 0px;
      }
    </style>
  </defs>
  <g id="Layer_1-2" data-name="Layer 1">
    <g>
      <g>
        <path class="cls-1" d="m24.26,18.55l-1.39-.48h0l-.91-.32.04.53c.02.23-.08.44-.27.57l-3.52,2.45c-.13.09-.11.29.03.36l.57.27h0l1.31.62h0l.53.25c.11.05.22.08.33.09.23.02.46-.04.66-.17l3.34-2.32s.01,0,.02-.01c0,0,.01-.01.02-.02.16-.13.25-.33.23-.54l-.08-.94-.92-.32Z"/>
        <path class="cls-1" d="m20.77,8.99l-.2.26h0s-.94,1.22-.94,1.22l.59.14c.22.05.4.22.46.44l1.2,4.12c.04.15.24.2.35.08l.41-.43.7-.74h0s.72-.76.72-.76c.08-.08.14-.18.19-.28.09-.21.11-.45.05-.68l-1.14-3.91s-.01-.03-.02-.05c-.07-.19-.24-.34-.44-.39l-.99-.24-.94,1.22h0Z"/>
        <path class="cls-1" d="m16.1,5.53s0,.02,0,.03c0,.01,0,.02,0,.03,0,0,0,0,0,.01,0,.02,0,.03.01.05h0s0,.01,0,.01c0,.01,0,.03.02.04,0,0,0,0,0,0,0,0,0,0,0,.01,0,.01,0,.02.01.03,0,0,0,0,0,0,0,0,0,.02.01.02,0,0,0,0,0,0,0,.01.01.03.02.04l1.99,3.55s.02.03.03.04c.12.17.31.28.52.28h.54s.79-1.04.79-1.04l1.05-1.4h0l.47-.63h-1.01c-.23-.02-.43-.14-.54-.34l-2.1-3.74c-.08-.14-.28-.14-.36,0l-.34.58-.84,1.41-.18.3c-.06.1-.1.2-.12.31-.02.1-.03.21-.01.32,0,.02,0,.03,0,.05,0,0,0,0,0,.01Z"/>
        <path class="cls-1" d="m10.96,11.04l.18-.53-.25-.35h0l-.13-.18-.64-.89h0l-.67-.94-.56-.78-.32.98c-.07.22-.25.38-.47.42l-4.2.87c-.16.03-.22.22-.11.34l.54.6.54.6h0s.53.6.53.6l.04.05h0l.13.14s.02.02.03.03c0,.01.02.02.03.03,0,0,.02.02.03.03.03.03.07.06.1.08.01,0,.02.02.04.02s.02.01.04.02c.2.11.45.15.68.1l3.99-.82s0,0,0,0c.01,0,.03,0,.04-.01.2-.06.36-.21.43-.41Z"/>
        <path class="cls-1" d="m9.47,18.54l-.76.24-1.25.4h0s-1.66.52-1.66.52l.82.6c.18.13.28.36.25.58l-.48,4.26c-.02.16.14.28.29.21l.61-.27h0l1.51-.66h0l.32-.14c.11-.05.2-.11.29-.19.17-.16.28-.37.31-.61l.46-4.05s0-.03,0-.05c0-.21-.09-.41-.26-.53l-.44-.33Z"/>
        <path class="cls-1" d="m28.83,13.47l-.6-.15h0s-1.73-.42-1.73-.42h0l-.25-.06c-.11-.03-.23-.03-.34-.02-.23.03-.45.13-.61.3l-2.81,2.94s-.02.02-.03.04c-.13.16-.18.38-.12.58l.14.48.59.21,2.04.73,1,.36-.27-.93c-.06-.22,0-.45.15-.62l2.96-3.1c.11-.12.05-.31-.1-.34Z"/>
        <path class="cls-1" d="m10.23,12.26l-.46.1-1.79.37h0l-.36.07c-.12.02-.23.07-.33.13-.19.12-.34.31-.41.53l-1.28,3.86s0,.03-.01.05c-.05.2,0,.42.14.57l.66.75.6-.19h0l1.18-.38h0s1.47-.47,1.47-.47l-.39-.44c-.15-.17-.2-.41-.13-.62l1.35-4.07c.05-.15-.08-.3-.24-.27Z"/>
        <path class="cls-1" d="m29.72,8.48h0s0,0,0,0C27.18,3.6,22.15.2,16.26,0c-.13,0-.26,0-.38,0C7.35-.07.28,6.68,0,15.24c-.28,8.69,6.54,15.97,15.24,16.25.13,0,.26,0,.38,0,8.52.07,15.59-6.68,15.87-15.24.09-2.8-.56-5.46-1.77-7.78Zm-3.42,17.78l-.2-.1c-.2-.1-.34-.3-.36-.52l-.36-4.28c-.01-.16-.19-.24-.33-.15l-.43.3h0l-1.46,1.01h0s-.3.21-.3.21c-.1.07-.18.15-.24.24-.13.19-.2.42-.18.66l.34,4.06s0,.03,0,.05c.03.21.16.38.36.47l.44.21c-2.37,1.47-5.11,2.26-7.95,2.23-.12,0-.24,0-.36,0-2.19-.07-4.28-.62-6.18-1.57l.03-.24c.03-.23.17-.42.38-.51l3.93-1.72c.15-.06.17-.26.04-.36l-.39-.29-1.46-1.07h0l-.3-.22c-.09-.07-.2-.12-.31-.15-.22-.07-.46-.05-.68.04l-3.73,1.63s-.03.01-.04.02c-.18.1-.31.28-.33.49l-.05.46c-.45-.38-.89-.78-1.29-1.21C2.16,23.04.73,19.25.86,15.27c.02-.63.09-1.24.19-1.86l.2-.04c.22-.05.45.03.6.2l2.85,3.2c.11.12.3.08.35-.07l.14-.44h0l.63-1.92.06-.17c.04-.12.05-.23.05-.35,0-.23-.1-.45-.25-.62l-2.71-3.04s-.02-.02-.03-.03c-.15-.14-.36-.21-.57-.17l-.38.08c.78-1.88,1.93-3.6,3.44-5.04,2.25-2.16,5.06-3.51,8.08-3.97l.07.12c.11.2.11.44,0,.63l-2.19,3.69c-.08.14.02.31.18.31h.29s1.81.03,1.81.03h.57c.11,0,.23,0,.33-.04.22-.07.42-.23.54-.44l2.08-3.5s.01-.03.02-.04c.09-.19.09-.41-.01-.59l-.16-.28c3.67.31,7.06,1.93,9.6,4.64,1.01,1.08,1.84,2.28,2.48,3.56l-.11.11c-.16.16-.39.23-.61.18l-4.17-1.02c-.16-.04-.29.11-.25.26l.09.3.59,2,.08.26c.03.11.08.21.14.29.14.19.34.34.58.39l3.96.96s.03,0,.05,0c.21.03.42-.03.56-.19l.26-.27c.28,1.24.42,2.52.38,3.82-.12,3.8-1.67,7.34-4.34,10.03Z"/>
        <path class="cls-1" d="m10.58,8.38l.57.8h0l.07.1.14.2h0s.68.97.68.97l.3-.5c.12-.19.33-.31.55-.31l4.29.06c.16,0,.26-.17.18-.31l-.36-.64-.81-1.45-.13-.23s-.01-.03-.02-.04c-.02-.03-.03-.05-.05-.07,0-.01-.02-.02-.03-.03,0-.01-.02-.02-.03-.03-.03-.03-.06-.06-.1-.09-.17-.15-.4-.24-.63-.24l-4.07-.05s-.03,0-.05,0c-.21.01-.4.13-.51.31l-.51.85.51.72h0Z"/>
        <path class="cls-1" d="m21.84,25l-.03-.31c0-.12-.04-.23-.09-.33-.1-.21-.26-.38-.48-.48l-3.68-1.73s-.03-.01-.04-.02c-.19-.07-.41-.05-.59.07l-.37.26v.44s-.08,2.79-.08,2.79h0s-.01.61-.01.61l.76-.52c.19-.13.43-.15.63-.05l3.88,1.83c.14.07.31-.05.29-.2l-.05-.55-.15-1.8Z"/>
        <path class="cls-1" d="m15.71,24.77v-.69s0,0,0,0v-1.19h0v-.67s-.46.2-.46.2c-.21.09-.45.06-.63-.07l-3.45-2.55c-.13-.09-.31-.01-.33.14l-.05.45-.2,1.8-.04.4c-.01.12,0,.23.02.34.01.06.03.11.05.16.01.03.02.05.04.08.01.03.03.05.04.07.03.05.07.09.11.14.04.04.08.08.13.12l3.28,2.42h.02s.01.02.02.03c.18.11.4.13.59.04l.85-.37v-.52h0v-.33Z"/>
      </g>
      <g>
        <path class="cls-1" d="m20.91,12.66l-2.34,1.96c-.38.32-.47.86-.23,1.28l1.5,2.59h-1.1s-1.41-2.44-1.41-2.44c-.37-.64-.23-1.46.34-1.93l1.75-1.47h1.49Z"/>
        <path class="cls-1" d="m18.42,18.5l-1.04-1.81c-.47-.82-1.57-1.01-2.3-.4l-1.14.95c-.32.27-.79-.05-.66-.45l1.35-4.14h-1.01s-1.96,6.02-1.96,6.02c-.22.68.59,1.23,1.14.77l2.48-2.08c.48-.41,1.21-.28,1.53.27l.49.86h1.11Z"/>
        <path class="cls-1" d="m14.92,12.66h1.01s-.37,1.14-.37,1.14c-.06.19.17.35.32.22l1.62-1.36h1.49s-3.66,3.07-3.66,3.07c-.56.47-1.38-.09-1.15-.78l.75-2.29Z"/>
      </g>
    </g>
    <g>
      <polygon class="cls-1" points="247.67 8.44 243.81 13.69 238.15 10.49 239.79 18.24 247.67 18.24 255.55 18.24 257.18 10.49 251.53 13.69 247.67 8.44"/>
      <polygon class="cls-1" points="240.19 21.18 255.08 21.18 255.28 19.5 239.99 19.5 240.19 21.18"/>
      <circle class="cls-1" cx="247.64" cy="6.77" r="1.14"/>
      <path class="cls-1" d="m258.9,9.23s0-.03,0-.04c0,0,0-.02,0-.02,0,0,0-.02,0-.02,0-.01,0-.03,0-.04,0,0,0,0,0,0,0-.02,0-.03,0-.05,0,0,0,0,0,0,0,0,0,0,0,0,0-.02,0-.04,0-.06,0,0,0,0,0,0,0-.02,0-.04,0-.05,0,0,0,0,0,0,0-.02,0-.03-.01-.05,0,0,0,0,0-.01,0-.01,0-.03-.01-.04,0,0,0-.01,0-.02,0,0,0-.02-.01-.03,0,0,0-.02-.01-.03,0,0,0-.01,0-.02,0-.01,0-.02-.01-.03,0,0,0-.01,0-.02,0-.01-.01-.02-.02-.04,0,0,0,0,0-.01,0-.01-.01-.03-.02-.04,0,0,0,0,0,0,0-.01-.02-.03-.02-.04,0,0,0,0,0,0,0-.01-.02-.02-.02-.04,0,0,0,0,0-.01,0-.01-.02-.02-.02-.03,0,0,0,0,0-.01,0,0-.02-.02-.02-.03,0,0,0-.01-.01-.02,0,0-.01-.02-.02-.02,0,0-.01-.01-.02-.02,0,0-.01-.01-.02-.02,0,0-.02-.01-.02-.02,0,0-.01,0-.02-.01,0,0-.02-.02-.03-.02,0,0,0,0-.01,0-.01,0-.02-.02-.03-.02,0,0,0,0,0,0-.01,0-.02-.02-.04-.02,0,0,0,0,0,0-.01,0-.02-.02-.04-.02,0,0,0,0,0,0-.01,0-.03-.01-.04-.02,0,0,0,0-.01,0-.01,0-.02-.01-.04-.02,0,0,0,0-.01,0-.01,0-.02-.01-.03-.01,0,0-.01,0-.02,0,0,0-.02,0-.03-.01,0,0-.02,0-.03,0,0,0-.01,0-.02,0-.01,0-.03,0-.04-.01,0,0,0,0-.01,0-.02,0-.03,0-.05-.01,0,0,0,0,0,0-.02,0-.04,0-.05,0,0,0,0,0,0,0-.02,0-.04,0-.06,0,0,0,0,0,0,0,0,0,0,0,0,0-.02,0-.03,0-.05,0,0,0,0,0,0,0-.01,0-.03,0-.04,0,0,0-.02,0-.02,0,0,0-.02,0-.02,0-.01,0-.03,0-.04,0,0,0,0,0,0,0-.02,0-.03,0-.05,0h0s0,0,0,0c-.02,0-.04,0-.06,0,0,0,0,0,0,0-.02,0-.04,0-.05,0,0,0,0,0,0,0-.02,0-.03,0-.05.01,0,0,0,0-.01,0-.01,0-.03,0-.04.01,0,0-.01,0-.02,0,0,0-.02,0-.03.01,0,0-.02,0-.03.01,0,0-.01,0-.02,0-.01,0-.02,0-.03.01,0,0-.01,0-.02,0-.01,0-.02.01-.04.02,0,0,0,0-.01,0-.01,0-.03.01-.04.02,0,0,0,0,0,0-.01,0-.03.02-.04.02,0,0,0,0,0,0-.01,0-.02.02-.04.02,0,0,0,0-.01,0-.01,0-.02.02-.03.02,0,0,0,0-.01,0,0,0-.02.02-.03.02,0,0-.01,0-.02.01,0,0-.02.01-.02.02,0,0-.01.01-.02.02,0,0-.01.01-.02.02,0,0-.01.02-.02.02,0,0,0,.01-.01.02,0,0-.02.02-.02.03,0,0,0,0,0,.01,0,.01-.02.02-.02.03,0,0,0,0,0,.01,0,.01-.02.02-.02.04,0,0,0,0,0,0,0,.01-.02.02-.02.04,0,0,0,0,0,0,0,.01-.01.03-.02.04,0,0,0,0,0,.01,0,.01-.01.02-.02.04,0,0,0,.01,0,.02,0,.01,0,.02-.01.03,0,0,0,.01,0,.02,0,0,0,.02-.01.03,0,0,0,.02-.01.03,0,0,0,.01,0,.02,0,.01,0,.03-.01.04,0,0,0,0,0,.01,0,.02,0,.03-.01.05,0,0,0,0,0,0,0,.02,0,.04,0,.05,0,0,0,0,0,0,0,.02,0,.04,0,.06,0,0,0,0,0,0,0,0,0,0,0,0,0,.02,0,.03,0,.05,0,0,0,0,0,0,0,.01,0,.03,0,.04,0,0,0,.02,0,.02,0,0,0,.02,0,.02,0,.01,0,.03,0,.04,0,0,0,0,0,0,0,.02,0,.03,0,.05,0,0,0,0,0,0,0,0,0,0,0,0,0,.02,0,.04,0,.06,0,0,0,0,0,0,0,.02,0,.04,0,.05,0,0,0,0,0,0,0,.02,0,.03.01.05,0,0,0,0,0,.01,0,.01,0,.03.01.04,0,0,0,.01,0,.02,0,0,0,.02.01.03,0,0,0,.02.01.03,0,0,0,.01,0,.02,0,.01,0,.02.01.03,0,0,0,.01,0,.02,0,.01.01.02.02.04,0,0,0,0,0,.01,0,.01.01.03.02.04,0,0,0,0,0,0,0,.01.02.03.02.04,0,0,0,0,0,0,0,.01.02.02.02.04,0,0,0,0,0,.01,0,.01.02.02.02.03,0,0,0,0,0,.01,0,0,.02.02.02.03,0,0,0,.01.01.02,0,0,.01.02.02.02,0,0,.01.01.02.02,0,0,.01.01.02.02,0,0,.02.01.02.02,0,0,.01,0,.02.01,0,0,.02.02.03.02,0,0,0,0,.01,0,.01,0,.02.02.03.02,0,0,0,0,.01,0,.01,0,.02.02.04.02,0,0,0,0,0,0,.01,0,.02.02.04.02,0,0,0,0,0,0,.01,0,.03.01.04.02,0,0,0,0,.01,0,.01,0,.02.01.04.02,0,0,0,0,.01,0,.01,0,.02.01.03.01,0,0,.01,0,.02,0,0,0,.02,0,.03.01,0,0,.02,0,.03,0,0,0,.01,0,.02,0,.01,0,.03,0,.04.01,0,0,0,0,.01,0,.02,0,.03,0,.05.01,0,0,0,0,0,0,.02,0,.04,0,.05,0,0,0,0,0,0,0,.02,0,.04,0,.06,0,0,0,0,0,0,0,0,0,0,0,0,0,.02,0,.03,0,.05,0,0,0,0,0,0,0,.01,0,.03,0,.04,0,0,0,.02,0,.02,0,0,0,.02,0,.02,0,.01,0,.03,0,.04,0,0,0,0,0,0,0,.02,0,.03,0,.05,0,0,0,0,0,0,0,0,0,0,0,0,0,.02,0,.04,0,.06,0,0,0,0,0,0,0,.02,0,.04,0,.05,0,0,0,0,0,0,0,.02,0,.03,0,.05-.01,0,0,0,0,.01,0,.01,0,.03,0,.04-.01,0,0,.01,0,.02,0,0,0,.02,0,.03,0,0,0,.02,0,.03-.01,0,0,.01,0,.02,0,.01,0,.02,0,.03-.01,0,0,0,0,.01,0,.01,0,.02-.01.04-.02,0,0,0,0,.01,0,.01,0,.03-.01.04-.02,0,0,0,0,0,0,.01,0,.03-.02.04-.02,0,0,0,0,0,0,.01,0,.02-.02.04-.02,0,0,0,0,0,0,.01,0,.02-.02.03-.02,0,0,0,0,.01,0,0,0,.02-.02.03-.02,0,0,.01,0,.02-.01,0,0,.02-.01.02-.02,0,0,.01-.01.02-.02,0,0,.01-.01.02-.02,0,0,.01-.02.02-.02,0,0,0-.01.01-.02,0,0,.02-.02.02-.03,0,0,0,0,0-.01,0-.01.02-.02.02-.03,0,0,0,0,0-.01,0-.01.02-.02.02-.04,0,0,0,0,0,0,0-.01.02-.02.02-.04,0,0,0,0,0,0,0-.01.01-.03.02-.04,0,0,0,0,0-.01,0-.01.01-.02.02-.04,0,0,0-.01,0-.02,0-.01,0-.02.01-.03,0,0,0-.01,0-.02,0,0,0-.02.01-.03,0,0,0-.02.01-.03,0,0,0-.01,0-.02,0-.01,0-.03.01-.04,0,0,0,0,0-.01,0-.02,0-.03.01-.05,0,0,0,0,0,0,0-.02,0-.04,0-.05,0,0,0,0,0,0,0-.02,0-.04,0-.06,0,0,0,0,0,0h0s0-.03,0-.05c0,0,0,0,0,0Z"/>
      <path class="cls-1" d="m238.7,9.29c.07-.62-.38-1.18-1.01-1.25-.62-.07-1.18.38-1.25,1.01s.38,1.18,1.01,1.25,1.18-.38,1.25-1.01Z"/>
    </g>
  </g>
</svg>